<svg xmlns="http://www.w3.org/2000/svg" width="860.5" height="963" viewBox="0 0 860.5 963">
  <metadata><?xpacket begin="﻿" id="W5M0MpCehiHzreSzNTczkc9d"?>
<x:xmpmeta xmlns:x="adobe:ns:meta/" x:xmptk="Adobe XMP Core 5.6-c138 79.159824, 2016/09/14-01:09:01        ">
   <rdf:RDF xmlns:rdf="http://www.w3.org/1999/02/22-rdf-syntax-ns#">
      <rdf:Description rdf:about=""/>
   </rdf:RDF>
</x:xmpmeta>
                                                                                                    
                                                                                                    
                                                                                                    
                                                                                                    
                                                                                                    
                                                                                                    
                                                                                                    
                                                                                                    
                                                                                                    
                                                                                                    
                                                                                                    
                                                                                                    
                                                                                                    
                                                                                                    
                                                                                                    
                                                                                                    
                                                                                                    
                                                                                                    
                                                                                                    
                                                                                                    
                           
<?xpacket end="w"?></metadata>
<defs>
    <style>
      .cls-1 {
        opacity: 0.51;
      }

      .cls-2, .cls-3, .cls-4, .cls-5 {
        fill: #fff;
        stroke-linejoin: round;
        fill-rule: evenodd;
      }

      .cls-2, .cls-5 {
        stroke: #e7e7e7;
        stroke-width: 1px;
      }

      .cls-3, .cls-5 {
        fill-opacity: 0;
      }

      .cls-3, .cls-4 {
        stroke: #d5d5d5;
        stroke-width: 2px;
      }
    </style>
  </defs>
  <g id="romy" class="cls-1">
    <path id="Rectangle_2_copy" data-name="Rectangle 2 copy" class="cls-2" d="M1817.49,576.894l-90.08,52.04-90.11-51.993-0.03-104.033,90.08-52.039,90.11,51.993Z" transform="translate(-1066.5 -62)"/>
    <path id="Rectangle_2_copy_2" data-name="Rectangle 2 copy 2" class="cls-2" d="M1717.49,749.894l-90.08,52.04-90.11-51.993-0.03-104.033,90.08-52.039,90.11,51.993Z" transform="translate(-1066.5 -62)"/>
    <path id="Rectangle_2_copy_3" data-name="Rectangle 2 copy 3" class="cls-2" d="M1817.49,919.894l-90.08,52.04-90.11-51.993-0.03-104.033,90.08-52.039,90.11,51.993Z" transform="translate(-1066.5 -62)"/>
    <path id="Rectangle_2_copy_4" data-name="Rectangle 2 copy 4" class="cls-2" d="M1717.49,408.894l-90.08,52.04-90.11-51.993-0.03-104.033,90.08-52.039,90.11,51.993Z" transform="translate(-1066.5 -62)"/>
    <path id="Rectangle_2_copy_5" data-name="Rectangle 2 copy 5" class="cls-3" d="M1919.49,747.894l-90.08,52.04-90.11-51.993-0.03-104.033,90.08-52.039,90.11,51.993Z" transform="translate(-1066.5 -62)"/>
    <path id="Rectangle_2_copy_6" data-name="Rectangle 2 copy 6" class="cls-3" d="M1619.49,921.894l-90.08,52.04-90.11-51.993-0.03-104.033,90.08-52.039,90.11,51.993Z" transform="translate(-1066.5 -62)"/>
    <path id="Rectangle_2_copy_6-2" data-name="Rectangle 2 copy 6" class="cls-2" d="M1619.49,577.894l-90.08,52.04-90.11-51.993-0.03-104.033,90.08-52.039,90.11,51.993Z" transform="translate(-1066.5 -62)"/>
    <path id="Rectangle_2_copy_7" data-name="Rectangle 2 copy 7" class="cls-4" d="M1420.01,326.793l-66.21,38.288-66.24-38.254-0.02-76.543L1353.76,212l66.23,38.255Z" transform="translate(-1066.5 -62)"/>
    <path id="Rectangle_2_copy_7-2" data-name="Rectangle 2 copy 7" class="cls-2" d="M1495.5,206.079l-66.21,38.289-66.24-38.255-0.02-76.543,66.22-38.288,66.23,38.254Z" transform="translate(-1066.5 -62)"/>
    <path id="Rectangle_2_copy_7-3" data-name="Rectangle 2 copy 7" class="cls-2" d="M1420.01,579.158l-66.21,38.289-66.24-38.255-0.02-76.543,66.22-38.288,66.23,38.254Z" transform="translate(-1066.5 -62)"/>
    <path id="Rectangle_2_copy_7-4" data-name="Rectangle 2 copy 7" class="cls-2" d="M1494.99,705.709L1428.77,744l-66.23-38.254-0.02-76.543,66.21-38.289,66.24,38.255Z" transform="translate(-1066.5 -62)"/>
    <path id="Rectangle_2_copy_7-5" data-name="Rectangle 2 copy 7" class="cls-3" d="M1964.99,897.607L1898.77,935.9l-66.23-38.254-0.02-76.543,66.21-38.289,66.24,38.254Z" transform="translate(-1066.5 -62)"/>
    <path id="Rectangle_2_copy_7-6" data-name="Rectangle 2 copy 7" class="cls-2" d="M1345.47,452.63l-66.22,38.288-66.24-38.254-0.02-76.543,66.22-38.289,66.24,38.255Z" transform="translate(-1066.5 -62)"/>
    <path id="Rectangle_2_copy_7-7" data-name="Rectangle 2 copy 7" class="cls-2" d="M1274.47,327.528l-66.22,38.289-66.24-38.254-0.02-76.543,66.22-38.289,66.24,38.254Z" transform="translate(-1066.5 -62)"/>
    <path id="Rectangle_2_copy_8" data-name="Rectangle 2 copy 8" class="cls-5" d="M1557.14,813.372l-90.11-51.994-0.02-104.032,90.08-52.04L1647.2,657.3l0.02,104.033Z" transform="translate(-1066.5 -62)"/>
    <path id="Rectangle_2_copy_8-2" data-name="Rectangle 2 copy 8" class="cls-5" d="M1357.32,813.269l-90.11-51.993-0.03-104.033,90.09-52.039,90.1,51.993,0.03,104.032Z" transform="translate(-1066.5 -62)"/>
    <path id="Rectangle_2_copy_8-3" data-name="Rectangle 2 copy 8" class="cls-5" d="M1260.1,984.872l-90.11-51.993-0.03-104.033,90.08-52.04,90.11,51.993,0.03,104.033Z" transform="translate(-1066.5 -62)"/>
    <path id="Rectangle_2_copy_8-4" data-name="Rectangle 2 copy 8" class="cls-3" d="M1652.63,642.769l-90.1-51.993-0.03-104.033,90.08-52.039,90.11,51.993,0.03,104.032Z" transform="translate(-1066.5 -62)"/>
    <path id="Rectangle_2_copy_8-5" data-name="Rectangle 2 copy 8" class="cls-5" d="M1460.05,987.206l-90.11-51.993-0.02-104.033L1460,779.141l90.11,51.993,0.02,104.033Z" transform="translate(-1066.5 -62)"/>
    <path id="Rectangle_2_copy_8-6" data-name="Rectangle 2 copy 8" class="cls-5" d="M1159.36,814.4l-90.11-51.994-0.02-104.032,90.08-52.04,90.11,51.993,0.02,104.033Z" transform="translate(-1066.5 -62)"/>
    <path id="Rectangle_2_copy_8-7" data-name="Rectangle 2 copy 8" class="cls-3" d="M1457.28,642.4l-90.11-51.994-0.03-104.032,90.08-52.04,90.11,51.993,0.03,104.033Z" transform="translate(-1066.5 -62)"/>
    <path id="Rectangle_2_copy_8-8" data-name="Rectangle 2 copy 8" class="cls-3" d="M1575,344.1l-66.27-38.2,0.01-76.49,66.28-38.289,66.27,38.2-0.01,76.49Z" transform="translate(-1066.5 -62)"/>
    <path id="Rectangle_2_copy_8-9" data-name="Rectangle 2 copy 8" class="cls-5" d="M1717.29,349.118l-66.27-38.2,0.01-76.49,66.28-38.289,66.26,38.2-0.01,76.49Z" transform="translate(-1066.5 -62)"/>
    <path id="Rectangle_2_copy_8-10" data-name="Rectangle 2 copy 8" class="cls-3" d="M1356.44,470.28l-66.26-38.2,0.01-76.491,66.28-38.288,66.26,38.2-0.01,76.49Z" transform="translate(-1066.5 -62)"/>
    <path id="Rectangle_2_copy_8-11" data-name="Rectangle 2 copy 8" class="cls-3" d="M1284.34,598.488l-66.27-38.2,0.01-76.49,66.28-38.289,66.27,38.2-0.01,76.49Z" transform="translate(-1066.5 -62)"/>
    <path id="Rectangle_2_copy_8-12" data-name="Rectangle 2 copy 8" class="cls-5" d="M1353.15,1101.47l-66.27-38.2,0.01-76.492,66.28-38.288,66.27,38.2-0.01,76.489Z" transform="translate(-1066.5 -62)"/>
    <path id="Rectangle_2_copy_8-13" data-name="Rectangle 2 copy 8" class="cls-5" d="M1428.75,342.457l-66.27-38.2,0.01-76.49,66.28-38.288,66.27,38.2-0.01,76.49Z" transform="translate(-1066.5 -62)"/>
    <path id="Rectangle_2_copy_8-14" data-name="Rectangle 2 copy 8" class="cls-3" d="M1501.59,218.418l-66.27-38.2,0.01-76.49,66.28-38.289,66.27,38.2-0.01,76.49Z" transform="translate(-1066.5 -62)"/>
  </g>
</svg>
